<svg width="129" height="40" viewBox="0 0 129 40" fill="none" xmlns="http://www.w3.org/2000/svg">
<path d="M118.727 0.000129292H10.2786C9.88325 0.000129292 9.49268 0.000129292 9.09842 0.0021184C8.76838 0.00410751 8.44098 0.00988587 8.10777 0.0147492C7.3839 0.022608 6.66173 0.0813608 5.94753 0.190497C5.23434 0.302009 4.54349 0.512241 3.89835 0.814083C3.254 1.11848 2.66523 1.51401 2.15342 1.98632C1.63891 2.45731 1.21004 3.00171 0.883274 3.59859C0.555611 4.19427 0.328408 4.83261 0.209513 5.49154C0.0894873 6.14964 0.0249005 6.81534 0.016332 7.48264C0.00632797 7.78757 0.00527151 8.09352 0 8.39849V31.3869C0.00527151 31.6957 0.00632797 31.9949 0.016332 32.3038C0.0249031 32.971 0.0894899 33.6367 0.209513 34.2948C0.32808 34.9541 0.555296 35.5928 0.883274 36.1887C1.20989 36.7836 1.63883 37.3258 2.15342 37.7942C2.66329 38.2686 3.25244 38.6644 3.89835 38.9665C4.54349 39.2691 5.23426 39.4806 5.94753 39.5938C6.66185 39.7021 7.38394 39.7609 8.10777 39.7697C8.44098 39.7764 8.76838 39.7803 9.09842 39.7803C9.49267 39.7823 9.88327 39.7823 10.2786 39.7823H118.727C119.115 39.7823 119.508 39.7823 119.896 39.7803C120.224 39.7803 120.561 39.7764 120.89 39.7697C121.612 39.7614 122.333 39.7026 123.046 39.5938C123.761 39.4798 124.454 39.2684 125.103 38.9665C125.748 38.6642 126.337 38.2685 126.846 37.7942C127.359 37.324 127.789 36.7822 128.12 36.1887C128.445 35.5923 128.67 34.9537 128.787 34.2948C128.908 33.6366 128.974 32.9711 128.987 32.3038C128.992 31.9949 128.992 31.6957 128.992 31.3869C129 31.0256 129 30.6662 129 30.299V9.48433C129 9.12012 129 8.75881 128.992 8.39849C128.992 8.09352 128.992 7.78757 128.987 7.4826C128.974 6.81524 128.908 6.1497 128.787 5.4915C128.67 4.83295 128.445 4.19467 128.12 3.59855C127.454 2.40217 126.399 1.42833 125.103 0.813993C124.454 0.512889 123.761 0.302713 123.046 0.190407C122.333 0.0807904 121.612 0.0220172 120.89 0.01461C120.561 0.00975658 120.224 0.00392849 119.896 0.00198911C119.508 0 119.115 0 118.727 0V0.000129292Z" fill="#A6A6A6"/>
<path d="M9.30308 38.9041C8.97581 38.9041 8.65645 38.9003 8.33175 38.8935C7.6591 38.8854 6.98803 38.8312 6.32404 38.7313C5.7049 38.6327 5.10512 38.4491 4.54448 38.1867C3.98898 37.9264 3.48232 37.5852 3.04391 37.176C2.59916 36.7717 2.22888 36.3028 1.94775 35.7878C1.66352 35.2694 1.46682 34.7138 1.36449 34.1403C1.25399 33.524 1.1942 32.9009 1.18565 32.2763C1.17884 32.0666 1.16992 31.3686 1.16992 31.3686V8.40376C1.16992 8.40376 1.17942 7.71642 1.1857 7.51448C1.19389 6.89085 1.25333 6.2687 1.3635 5.65341C1.46602 5.07833 1.66287 4.52112 1.94725 4.00108C2.22735 3.48644 2.59557 3.01713 3.03765 2.61135C3.47923 2.20171 3.98751 1.85872 4.54395 1.59488C5.1033 1.33331 5.70195 1.15103 6.31984 1.05414C6.98601 0.953303 7.65941 0.898785 8.33439 0.891045L9.3036 0.878906H119.691L120.672 0.891532C121.34 0.898887 122.008 0.952919 122.668 1.05317C123.292 1.15127 123.897 1.33483 124.463 1.5978C125.577 2.1295 126.484 2.9707 127.057 4.00351C127.336 4.51996 127.53 5.07262 127.632 5.64274C127.743 6.26307 127.805 6.89011 127.818 7.51886C127.821 7.80039 127.821 8.1028 127.821 8.40376C127.83 8.77656 127.83 9.13139 127.83 9.48914V30.2948C127.83 30.656 127.83 31.0084 127.821 31.3637C127.821 31.687 127.821 31.9831 127.817 32.2879C127.805 32.9055 127.743 33.5213 127.634 34.1305C127.533 34.7082 127.338 35.2681 127.054 35.7907C126.77 36.3001 126.402 36.765 125.963 37.1683C125.524 37.5796 125.016 37.9229 124.459 38.1848C123.895 38.4492 123.291 38.6335 122.668 38.7313C122.004 38.8317 121.333 38.8859 120.66 38.8935C120.345 38.9003 120.016 38.9041 119.696 38.9041L118.532 38.9061L9.30308 38.9041Z" fill="black"/>
<path fill-rule="evenodd" clip-rule="evenodd" d="M25.7992 20.5212C25.8209 18.8378 26.7034 17.2828 28.1376 16.4011C27.2288 15.103 25.761 14.3095 24.1772 14.26C22.5109 14.0851 20.8954 15.2571 20.0463 15.2571C19.1807 15.2571 17.8734 14.2773 16.4656 14.3063C14.6132 14.3662 12.9282 15.3938 12.0271 17.0132C10.1079 20.3359 11.5394 25.2191 13.3778 27.9048C14.2975 29.22 15.3725 30.6891 16.779 30.637C18.1554 30.5799 18.6695 29.7593 20.3309 29.7593C21.9769 29.7593 22.4592 30.637 23.8943 30.6038C25.3712 30.5799 26.3018 29.2828 27.1893 27.9552C27.8501 27.0181 28.3586 25.9824 28.696 24.8865C26.9418 24.1446 25.8013 22.4258 25.7992 20.5212Z" fill="white"/>
<path fill-rule="evenodd" clip-rule="evenodd" d="M23.0898 12.495C23.895 11.5283 24.2918 10.2858 24.1957 9.03125C22.9654 9.16047 21.829 9.74847 21.0128 10.6781C20.2069 11.5953 19.7986 12.7952 19.8779 14.0136C21.1247 14.0265 22.3085 13.4667 23.0898 12.495Z" fill="white"/>
<path d="M41.4669 13.8441V8.89649H42.8958C43.2888 8.89649 43.6192 8.95305 43.8871 9.06617C44.1551 9.17334 44.3724 9.33409 44.5391 9.54843C44.7117 9.75682 44.8338 10.0128 44.9052 10.3165C44.9826 10.6142 45.0213 10.9535 45.0213 11.3346C45.0213 11.7275 44.9797 12.0639 44.8963 12.3438C44.8189 12.6176 44.7177 12.8469 44.5927 13.0314C44.4676 13.216 44.3247 13.3619 44.164 13.469C44.0092 13.5762 43.8514 13.6596 43.6907 13.7191C43.5299 13.7727 43.3781 13.8084 43.2352 13.8263C43.0923 13.8382 42.9732 13.8441 42.878 13.8441H41.4669ZM40.6185 8.18202V14.5586H42.8065C43.3364 14.5586 43.7949 14.4842 44.1819 14.3353C44.5689 14.1865 44.8874 13.9721 45.1374 13.6923C45.3875 13.4065 45.5721 13.0582 45.6912 12.6474C45.8102 12.2306 45.8698 11.7543 45.8698 11.2185C45.8698 10.1944 45.6048 9.43233 45.0749 8.93221C44.545 8.43209 43.7889 8.18202 42.8065 8.18202H40.6185ZM47.5139 12.2545C47.5139 11.9746 47.5497 11.7275 47.6211 11.5132C47.6985 11.2929 47.8027 11.1083 47.9337 10.9595C48.0647 10.8106 48.2165 10.6975 48.3892 10.6201C48.5678 10.5427 48.7553 10.504 48.9518 10.504C49.1483 10.504 49.3328 10.5427 49.5055 10.6201C49.6841 10.6975 49.8389 10.8106 49.9699 10.9595C50.1009 11.1083 50.2021 11.2929 50.2735 11.5132C50.3509 11.7275 50.3896 11.9746 50.3896 12.2545C50.3896 12.5343 50.3509 12.7843 50.2735 13.0046C50.2021 13.219 50.1009 13.4006 49.9699 13.5494C49.8389 13.6923 49.6841 13.8025 49.5055 13.8799C49.3328 13.9573 49.1483 13.996 48.9518 13.996C48.7553 13.996 48.5678 13.9573 48.3892 13.8799C48.2165 13.8025 48.0647 13.6923 47.9337 13.5494C47.8027 13.4006 47.6985 13.219 47.6211 13.0046C47.5497 12.7843 47.5139 12.5343 47.5139 12.2545ZM46.7102 12.2545C46.7102 12.5938 46.7578 12.9094 46.8531 13.2011C46.9483 13.4929 47.0912 13.7489 47.2817 13.9692C47.4723 14.1835 47.7074 14.3532 47.9873 14.4782C48.2671 14.5973 48.5886 14.6568 48.9518 14.6568C49.3209 14.6568 49.6424 14.5973 49.9163 14.4782C50.1961 14.3532 50.4313 14.1835 50.6218 13.9692C50.8124 13.7489 50.9553 13.4929 51.0505 13.2011C51.1458 12.9094 51.1934 12.5938 51.1934 12.2545C51.1934 11.9151 51.1458 11.5995 51.0505 11.3078C50.9553 11.0101 50.8124 10.7541 50.6218 10.5397C50.4313 10.3195 50.1961 10.1468 49.9163 10.0218C49.6424 9.89673 49.3209 9.83422 48.9518 9.83422C48.5886 9.83422 48.2671 9.89673 47.9873 10.0218C47.7074 10.1468 47.4723 10.3195 47.2817 10.5397C47.0912 10.7541 46.9483 11.0101 46.8531 11.3078C46.7578 11.5995 46.7102 11.9151 46.7102 12.2545ZM56.8396 14.5586L58.3132 9.94139H57.5273L56.4913 13.7191H56.4735L55.5089 9.94139H54.6784L53.7496 13.7191H53.7317L52.6868 9.94139H51.8473L53.3298 14.5586H54.1515L55.0803 10.888H55.0981L56.0358 14.5586H56.8396ZM59.2135 9.94139V14.5586H59.9726V11.9508C59.9726 11.7424 59.9994 11.5519 60.053 11.3792C60.1126 11.2006 60.1989 11.0458 60.312 10.9148C60.4251 10.7839 60.565 10.6826 60.7318 10.6112C60.9044 10.5397 61.1068 10.504 61.339 10.504C61.6308 10.504 61.86 10.5874 62.0267 10.7541C62.1934 10.9208 62.2768 11.147 62.2768 11.4328V14.5586H63.0359V11.5221C63.0359 11.2721 63.0091 11.0458 62.9555 10.8434C62.9079 10.635 62.8216 10.4564 62.6965 10.3075C62.5715 10.1587 62.4078 10.0426 62.2053 9.95925C62.0029 9.87589 61.7499 9.83422 61.4462 9.83422C60.7615 9.83422 60.2614 10.114 59.9458 10.6737H59.928V9.94139H59.2135ZM64.3993 8.18202V14.5586H65.1584V8.18202H64.3993ZM67.0667 12.2545C67.0667 11.9746 67.1025 11.7275 67.1739 11.5132C67.2513 11.2929 67.3555 11.1083 67.4865 10.9595C67.6175 10.8106 67.7693 10.6975 67.942 10.6201C68.1206 10.5427 68.3081 10.504 68.5046 10.504C68.7011 10.504 68.8856 10.5427 69.0583 10.6201C69.2369 10.6975 69.3917 10.8106 69.5227 10.9595C69.6537 11.1083 69.7549 11.2929 69.8263 11.5132C69.9037 11.7275 69.9424 11.9746 69.9424 12.2545C69.9424 12.5343 69.9037 12.7843 69.8263 13.0046C69.7549 13.219 69.6537 13.4006 69.5227 13.5494C69.3917 13.6923 69.2369 13.8025 69.0583 13.8799C68.8856 13.9573 68.7011 13.996 68.5046 13.996C68.3081 13.996 68.1206 13.9573 67.942 13.8799C67.7693 13.8025 67.6175 13.6923 67.4865 13.5494C67.3555 13.4006 67.2513 13.219 67.1739 13.0046C67.1025 12.7843 67.0667 12.5343 67.0667 12.2545ZM66.263 12.2545C66.263 12.5938 66.3106 12.9094 66.4059 13.2011C66.5011 13.4929 66.644 13.7489 66.8345 13.9692C67.0251 14.1835 67.2602 14.3532 67.5401 14.4782C67.8199 14.5973 68.1414 14.6568 68.5046 14.6568C68.8737 14.6568 69.1952 14.5973 69.4691 14.4782C69.7489 14.3532 69.9841 14.1835 70.1746 13.9692C70.3652 13.7489 70.5081 13.4929 70.6033 13.2011C70.6986 12.9094 70.7462 12.5938 70.7462 12.2545C70.7462 11.9151 70.6986 11.5995 70.6033 11.3078C70.5081 11.0101 70.3652 10.7541 70.1746 10.5397C69.9841 10.3195 69.7489 10.1468 69.4691 10.0218C69.1952 9.89673 68.8737 9.83422 68.5046 9.83422C68.1414 9.83422 67.8199 9.89673 67.5401 10.0218C67.2602 10.1468 67.0251 10.3195 66.8345 10.5397C66.644 10.7541 66.5011 11.0101 66.4059 11.3078C66.3106 11.5995 66.263 11.9151 66.263 12.2545ZM75.9102 14.5407C75.7792 14.6181 75.5976 14.6568 75.3654 14.6568C75.1689 14.6568 75.0111 14.6032 74.892 14.4961C74.7789 14.383 74.7224 14.2014 74.7224 13.9513C74.514 14.2014 74.2699 14.383 73.99 14.4961C73.7162 14.6032 73.4185 14.6568 73.097 14.6568C72.8886 14.6568 72.6891 14.633 72.4986 14.5854C72.314 14.5378 72.1533 14.4633 72.0163 14.3621C71.8794 14.2609 71.7693 14.1299 71.6859 13.9692C71.6085 13.8025 71.5698 13.603 71.5698 13.3708C71.5698 13.1088 71.6145 12.8945 71.7038 12.7278C71.7931 12.5611 71.9092 12.4271 72.0521 12.3259C72.2009 12.2187 72.3676 12.1384 72.5522 12.0848C72.7427 12.0312 72.9362 11.9865 73.1327 11.9508C73.3411 11.9091 73.5375 11.8794 73.7221 11.8615C73.9126 11.8377 74.0793 11.8079 74.2222 11.7722C74.3651 11.7305 74.4783 11.674 74.5616 11.6025C74.645 11.5251 74.6866 11.415 74.6866 11.2721C74.6866 11.1054 74.6539 10.9714 74.5884 10.8702C74.5289 10.769 74.4485 10.6916 74.3473 10.638C74.252 10.5844 74.1419 10.5487 74.0168 10.5308C73.8978 10.513 73.7787 10.504 73.6596 10.504C73.3381 10.504 73.0702 10.5665 72.8558 10.6916C72.6415 10.8106 72.5254 11.0399 72.5075 11.3792H71.7484C71.7603 11.0935 71.8199 10.8523 71.927 10.6558C72.0342 10.4594 72.1771 10.3016 72.3557 10.1825C72.5343 10.0575 72.7368 9.96818 72.963 9.91459C73.1952 9.86101 73.4423 9.83422 73.7043 9.83422C73.9126 9.83422 74.118 9.8491 74.3205 9.87887C74.5289 9.90864 74.7164 9.97116 74.8831 10.0664C75.0498 10.1557 75.1838 10.2837 75.285 10.4504C75.3862 10.6171 75.4368 10.8345 75.4368 11.1024V13.478C75.4368 13.6566 75.4458 13.7876 75.4636 13.8709C75.4874 13.9543 75.5589 13.996 75.678 13.996C75.7434 13.996 75.8208 13.9811 75.9102 13.9513V14.5407ZM74.6777 12.1741C74.5824 12.2455 74.4574 12.2991 74.3026 12.3348C74.1478 12.3646 73.9841 12.3914 73.8114 12.4152C73.6447 12.4331 73.475 12.4569 73.3024 12.4867C73.1297 12.5105 72.9749 12.5521 72.838 12.6117C72.701 12.6712 72.5879 12.7576 72.4986 12.8707C72.4152 12.9778 72.3736 13.1267 72.3736 13.3172C72.3736 13.4422 72.3974 13.5494 72.445 13.6387C72.4986 13.7221 72.5641 13.7905 72.6415 13.8441C72.7248 13.8977 72.8201 13.9364 72.9273 13.9602C73.0344 13.984 73.1476 13.996 73.2666 13.996C73.5167 13.996 73.731 13.9632 73.9097 13.8977C74.0883 13.8263 74.2341 13.7399 74.3473 13.6387C74.4604 13.5316 74.5437 13.4184 74.5973 13.2994C74.6509 13.1743 74.6777 13.0582 74.6777 12.9511V12.1741ZM77.349 12.2902C77.349 12.0639 77.3728 11.8436 77.4204 11.6293C77.4681 11.415 77.5455 11.2244 77.6526 11.0577C77.7598 10.891 77.9027 10.7571 78.0813 10.6558C78.2599 10.5546 78.4772 10.504 78.7333 10.504C78.9952 10.504 79.2185 10.5546 79.4031 10.6558C79.5876 10.7511 79.7365 10.8791 79.8496 11.0399C79.9687 11.2006 80.055 11.3882 80.1086 11.6025C80.1622 11.8109 80.189 12.0282 80.189 12.2545C80.189 12.4688 80.1622 12.6802 80.1086 12.8885C80.061 13.0969 79.9806 13.2845 79.8675 13.4512C79.7543 13.6119 79.6085 13.7429 79.4299 13.8441C79.2512 13.9453 79.0339 13.996 78.7779 13.996C78.5338 13.996 78.3195 13.9483 78.1349 13.8531C77.9563 13.7578 77.8074 13.6298 77.6884 13.469C77.5752 13.3083 77.4889 13.1267 77.4294 12.9243C77.3758 12.7159 77.349 12.5045 77.349 12.2902ZM80.9213 14.5586V8.18202H80.1622V10.5576H80.1443C80.061 10.4207 79.9568 10.3075 79.8317 10.2182C79.7127 10.123 79.5847 10.0486 79.4477 9.99497C79.3108 9.93543 79.1738 9.89376 79.0369 9.86994C78.9 9.84612 78.772 9.83422 78.6529 9.83422C78.3016 9.83422 77.992 9.89971 77.7241 10.0307C77.4621 10.1557 77.2418 10.3284 77.0632 10.5487C76.8905 10.763 76.7596 11.0161 76.6702 11.3078C76.5869 11.5995 76.5452 11.9091 76.5452 12.2366C76.5452 12.5641 76.5899 12.8737 76.6792 13.1654C76.7685 13.4571 76.8995 13.7131 77.0721 13.9334C77.2507 14.1537 77.471 14.3294 77.733 14.4604C78.0009 14.5913 78.3135 14.6568 78.6707 14.6568C78.9922 14.6568 79.287 14.6003 79.5549 14.4871C79.8228 14.374 80.0193 14.1895 80.1443 13.9334H80.1622V14.5586H80.9213ZM85.4858 12.2545C85.4858 11.9746 85.5215 11.7275 85.5929 11.5132C85.6703 11.2929 85.7745 11.1083 85.9055 10.9595C86.0365 10.8106 86.1883 10.6975 86.361 10.6201C86.5396 10.5427 86.7271 10.504 86.9236 10.504C87.1201 10.504 87.3047 10.5427 87.4773 10.6201C87.6559 10.6975 87.8107 10.8106 87.9417 10.9595C88.0727 11.1083 88.1739 11.2929 88.2454 11.5132C88.3228 11.7275 88.3615 11.9746 88.3615 12.2545C88.3615 12.5343 88.3228 12.7843 88.2454 13.0046C88.1739 13.219 88.0727 13.4006 87.9417 13.5494C87.8107 13.6923 87.6559 13.8025 87.4773 13.8799C87.3047 13.9573 87.1201 13.996 86.9236 13.996C86.7271 13.996 86.5396 13.9573 86.361 13.8799C86.1883 13.8025 86.0365 13.6923 85.9055 13.5494C85.7745 13.4006 85.6703 13.219 85.5929 13.0046C85.5215 12.7843 85.4858 12.5343 85.4858 12.2545ZM84.682 12.2545C84.682 12.5938 84.7296 12.9094 84.8249 13.2011C84.9201 13.4929 85.063 13.7489 85.2536 13.9692C85.4441 14.1835 85.6793 14.3532 85.9591 14.4782C86.2389 14.5973 86.5604 14.6568 86.9236 14.6568C87.2927 14.6568 87.6143 14.5973 87.8881 14.4782C88.168 14.3532 88.4031 14.1835 88.5937 13.9692C88.7842 13.7489 88.9271 13.4929 89.0223 13.2011C89.1176 12.9094 89.1652 12.5938 89.1652 12.2545C89.1652 11.9151 89.1176 11.5995 89.0223 11.3078C88.9271 11.0101 88.7842 10.7541 88.5937 10.5397C88.4031 10.3195 88.168 10.1468 87.8881 10.0218C87.6143 9.89673 87.2927 9.83422 86.9236 9.83422C86.5604 9.83422 86.2389 9.89673 85.9591 10.0218C85.6793 10.1468 85.4441 10.3195 85.2536 10.5397C85.063 10.7541 84.9201 11.0101 84.8249 11.3078C84.7296 11.5995 84.682 11.9151 84.682 12.2545ZM90.2389 9.94139V14.5586H90.998V11.9508C90.998 11.7424 91.0248 11.5519 91.0784 11.3792C91.1379 11.2006 91.2242 11.0458 91.3374 10.9148C91.4505 10.7839 91.5904 10.6826 91.7571 10.6112C91.9298 10.5397 92.1322 10.504 92.3644 10.504C92.6561 10.504 92.8854 10.5874 93.0521 10.7541C93.2188 10.9208 93.3021 11.147 93.3021 11.4328V14.5586H94.0612V11.5221C94.0612 11.2721 94.0345 11.0458 93.9809 10.8434C93.9332 10.635 93.8469 10.4564 93.7219 10.3075C93.5968 10.1587 93.4331 10.0426 93.2307 9.95925C93.0283 9.87589 92.7752 9.83422 92.4716 9.83422C91.7869 9.83422 91.2868 10.114 90.9712 10.6737H90.9533V9.94139H90.2389ZM99.0981 9.94139V8.55712H98.3389V9.94139H97.553V10.6112H98.3389V13.5494C98.3389 13.7638 98.3598 13.9364 98.4015 14.0674C98.4431 14.1984 98.5056 14.2996 98.589 14.371C98.6783 14.4425 98.7914 14.4931 98.9284 14.5229C99.0713 14.5467 99.2409 14.5586 99.4374 14.5586H100.018V13.8888H99.6696C99.5505 13.8888 99.4523 13.8858 99.3749 13.8799C99.3035 13.8679 99.2469 13.8471 99.2052 13.8173C99.1635 13.7876 99.1338 13.7459 99.1159 13.6923C99.104 13.6387 99.0981 13.5673 99.0981 13.478V10.6112H100.018V9.94139H99.0981ZM101.04 8.18202V14.5586H101.799V11.9508C101.799 11.7424 101.826 11.5519 101.879 11.3792C101.939 11.2006 102.025 11.0458 102.138 10.9148C102.251 10.7839 102.391 10.6826 102.558 10.6112C102.731 10.5397 102.933 10.504 103.165 10.504C103.457 10.504 103.686 10.5874 103.853 10.7541C104.02 10.9208 104.103 11.147 104.103 11.4328V14.5586H104.862V11.5221C104.862 11.2721 104.835 11.0458 104.782 10.8434C104.734 10.635 104.648 10.4564 104.523 10.3075C104.398 10.1587 104.234 10.0426 104.032 9.95925C103.829 9.87589 103.576 9.83422 103.273 9.83422C103.136 9.83422 102.993 9.8491 102.844 9.87887C102.701 9.90864 102.561 9.95627 102.424 10.0218C102.293 10.0813 102.174 10.1617 102.067 10.2629C101.96 10.3582 101.876 10.4772 101.817 10.6201H101.799V8.18202H101.04ZM109.387 11.8079H106.735C106.747 11.6293 106.785 11.4626 106.851 11.3078C106.916 11.147 107.006 11.0071 107.119 10.888C107.232 10.769 107.366 10.6767 107.521 10.6112C107.681 10.5397 107.86 10.504 108.056 10.504C108.247 10.504 108.42 10.5397 108.574 10.6112C108.735 10.6767 108.872 10.769 108.985 10.888C109.104 11.0012 109.197 11.1381 109.262 11.2989C109.334 11.4596 109.375 11.6293 109.387 11.8079ZM110.119 13.0939H109.369C109.304 13.3976 109.167 13.6238 108.958 13.7727C108.756 13.9215 108.494 13.996 108.173 13.996C107.922 13.996 107.705 13.9543 107.521 13.8709C107.336 13.7876 107.184 13.6774 107.065 13.5405C106.946 13.3976 106.86 13.2368 106.806 13.0582C106.753 12.8737 106.729 12.6802 106.735 12.4777H110.191C110.203 12.1979 110.176 11.9032 110.111 11.5936C110.051 11.284 109.938 10.9982 109.771 10.7362C109.61 10.4743 109.393 10.2599 109.119 10.0932C108.851 9.92055 108.512 9.83422 108.101 9.83422C107.786 9.83422 107.494 9.89376 107.226 10.0128C106.964 10.1319 106.735 10.2986 106.538 10.513C106.348 10.7273 106.199 10.9803 106.092 11.2721C105.985 11.5638 105.931 11.8853 105.931 12.2366C105.943 12.5879 105.993 12.9124 106.083 13.21C106.178 13.5077 106.318 13.7638 106.502 13.9781C106.687 14.1924 106.913 14.3591 107.181 14.4782C107.455 14.5973 107.777 14.6568 108.146 14.6568C108.67 14.6568 109.104 14.5258 109.45 14.2639C109.795 14.0019 110.018 13.6119 110.119 13.0939Z" fill="white"/>
<path d="M56.7112 21.9069C58.9913 21.9069 60.4943 23.7093 60.4943 26.4934C60.4943 29.2853 59 31.079 56.7451 31.079C55.5795 31.1399 54.4816 30.5294 53.9184 29.5072H53.8757V33.957H52.0316V22.0009H53.8166V23.4952H53.8505C54.4388 22.4793 55.5379 21.8691 56.7112 21.9069ZM66.5993 21.9069C68.8795 21.9069 70.3825 23.7093 70.3825 26.4934C70.3825 29.2853 68.8882 31.079 66.6333 31.079C65.4677 31.1399 64.3698 30.5294 63.8065 29.5072H63.7639V33.957H61.9198V22.0009H63.7047V23.4952H63.7387C64.3269 22.4793 65.426 21.8691 66.5993 21.9069ZM79.8385 18.457C82.4423 18.457 84.2273 19.9174 84.2874 22.0435H82.4259C82.3144 20.8138 81.2979 20.0715 79.8123 20.0715C78.3268 20.0715 77.3102 20.8225 77.3102 21.9156C77.3102 22.7868 77.9595 23.2994 79.5478 23.6918L80.9054 24.0252C83.4337 24.6231 84.4841 25.6387 84.4841 27.4411C84.4841 29.7464 82.6478 31.1903 79.727 31.1903C76.9943 31.1903 75.1493 29.7804 75.0301 27.5515L76.9178 27.5516C77.0544 28.7736 78.2415 29.5759 79.8637 29.5759C81.4181 29.5759 82.5363 28.7736 82.5363 27.6717C82.5363 26.7153 81.8619 26.1426 80.2649 25.7501L78.6679 25.3654C76.4052 24.8189 75.3547 23.7606 75.3547 22.0435C75.3547 19.9174 77.2075 18.457 79.8385 18.457ZM95.4228 21.8904C98.0276 21.8904 99.6847 23.6667 99.6847 26.4934C99.6847 29.3279 98.0364 31.0964 95.4228 31.0964C92.8102 31.0964 91.1619 29.3279 91.1619 26.4934C91.1619 23.6667 92.8267 21.8904 95.4228 21.8904ZM110.356 21.8904C112.841 21.8904 114.405 23.5979 114.405 26.3219V26.9537H108.059V27.0652C108 27.734 108.231 28.3961 108.693 28.8829C109.156 29.3698 109.805 29.6346 110.476 29.6099C111.371 29.6937 112.215 29.1798 112.551 28.3462L114.302 28.3462C114.054 29.9771 112.465 31.0964 110.433 31.0964C107.82 31.0964 106.198 29.3453 106.198 26.5361C106.198 23.7181 107.829 21.8904 110.356 21.8904ZM88.464 19.8748V22.0009H90.1725V23.4613H88.464V28.4141C88.464 29.1835 88.8061 29.5421 89.5571 29.5421C89.7599 29.5385 89.9624 29.5243 90.1637 29.4994V30.951C89.8261 31.0141 89.4829 31.0427 89.1395 31.0363C87.3206 31.0363 86.6112 30.3531 86.6112 28.6108V23.4613H85.3049V22.0009H86.6112V19.8748H88.464ZM46.4373 18.6625L50.8862 30.985H48.8628L47.7358 27.6543H43.0388L41.9108 30.985H39.9214L44.3703 18.6625H46.4373ZM105.168 21.9069C105.38 21.9061 105.592 21.9292 105.799 21.9757V23.7006C105.531 23.6186 105.251 23.581 104.971 23.5892C104.429 23.5672 103.904 23.7832 103.535 24.1806C103.165 24.578 102.988 25.117 103.049 25.6561V30.985H101.205V22.0009H102.964V23.53H103.007C103.252 22.5457 104.154 21.8682 105.168 21.9069ZM95.4228 23.4099C93.9285 23.4099 93.0409 24.5631 93.0409 26.4934C93.0409 28.4402 93.9285 29.576 95.4228 29.576C96.9171 29.576 97.8057 28.4402 97.8057 26.4934C97.8057 24.5544 96.9171 23.4099 95.4228 23.4099ZM56.2247 23.4787C54.8157 23.4787 53.868 24.6997 53.868 26.4934C53.868 28.3036 54.8157 29.5159 56.2247 29.5159C57.6589 29.5159 58.5989 28.3288 58.5989 26.4934C58.5989 24.6745 57.6589 23.4787 56.2247 23.4787ZM66.1129 23.4787C64.7039 23.4787 63.7561 24.6997 63.7561 26.4934C63.7561 28.3036 64.7039 29.5159 66.1129 29.5159C67.5471 29.5159 68.4871 28.3288 68.4871 26.4934C68.4871 24.6745 67.5471 23.4787 66.1129 23.4787ZM45.413 20.7121H45.3617L43.5253 26.1174H47.2484L45.413 20.7121ZM110.356 23.3847C109.749 23.3811 109.166 23.6199 108.737 24.0481C108.307 24.4763 108.066 25.0583 108.068 25.6649H112.559C112.593 25.0639 112.374 24.4762 111.956 24.0433C111.538 23.6105 110.958 23.3718 110.356 23.3847Z" fill="white"/>
</svg>
