<svg width="129" height="40" viewBox="0 0 129 40" fill="none" xmlns="http://www.w3.org/2000/svg">
<path d="M118.727 0.000129292H10.2786C9.88325 0.000129292 9.49268 0.000129292 9.09842 0.0021184C8.76838 0.00410751 8.44098 0.00988587 8.10777 0.0147492C7.3839 0.022608 6.66173 0.0813608 5.94753 0.190497C5.23434 0.302009 4.54349 0.512241 3.89835 0.814083C3.254 1.11848 2.66523 1.51401 2.15342 1.98632C1.63891 2.45731 1.21004 3.00171 0.883274 3.59859C0.555611 4.19427 0.328408 4.83261 0.209513 5.49154C0.0894873 6.14964 0.0249005 6.81534 0.016332 7.48264C0.00632797 7.78757 0.00527151 8.09352 0 8.39849V31.3869C0.00527151 31.6957 0.00632797 31.9949 0.016332 32.3038C0.0249031 32.971 0.0894899 33.6367 0.209513 34.2948C0.32808 34.9541 0.555296 35.5928 0.883274 36.1887C1.20989 36.7836 1.63883 37.3258 2.15342 37.7942C2.66329 38.2686 3.25244 38.6644 3.89835 38.9665C4.54349 39.2691 5.23426 39.4806 5.94753 39.5938C6.66185 39.7021 7.38394 39.7609 8.10777 39.7697C8.44098 39.7764 8.76838 39.7803 9.09842 39.7803C9.49267 39.7823 9.88327 39.7823 10.2786 39.7823H118.727C119.115 39.7823 119.508 39.7823 119.896 39.7803C120.224 39.7803 120.561 39.7764 120.89 39.7697C121.612 39.7614 122.333 39.7026 123.046 39.5938C123.761 39.4798 124.454 39.2684 125.103 38.9665C125.748 38.6642 126.337 38.2685 126.846 37.7942C127.359 37.324 127.789 36.7822 128.12 36.1887C128.445 35.5923 128.67 34.9537 128.787 34.2948C128.908 33.6366 128.974 32.9711 128.987 32.3038C128.992 31.9949 128.992 31.6957 128.992 31.3869C129 31.0256 129 30.6662 129 30.299V9.48433C129 9.12012 129 8.75881 128.992 8.39849C128.992 8.09352 128.992 7.78757 128.987 7.4826C128.974 6.81524 128.908 6.1497 128.787 5.4915C128.67 4.83295 128.445 4.19467 128.12 3.59855C127.454 2.40217 126.399 1.42833 125.103 0.813993C124.454 0.512889 123.761 0.302713 123.046 0.190407C122.333 0.0807904 121.612 0.0220172 120.89 0.01461C120.561 0.00975658 120.224 0.00392849 119.896 0.00198911C119.508 0 119.115 0 118.727 0V0.000129292Z" fill="#A6A6A6"/>
<path d="M9.30308 38.9041C8.97581 38.9041 8.65645 38.9003 8.33175 38.8935C7.6591 38.8854 6.98803 38.8312 6.32404 38.7313C5.7049 38.6327 5.10512 38.4491 4.54448 38.1867C3.98898 37.9264 3.48232 37.5852 3.04391 37.176C2.59916 36.7717 2.22888 36.3028 1.94775 35.7878C1.66352 35.2694 1.46682 34.7138 1.36449 34.1403C1.25399 33.524 1.1942 32.9009 1.18565 32.2763C1.17884 32.0666 1.16992 31.3686 1.16992 31.3686V8.40376C1.16992 8.40376 1.17942 7.71642 1.1857 7.51448C1.19389 6.89085 1.25333 6.2687 1.3635 5.65341C1.46602 5.07833 1.66287 4.52112 1.94725 4.00108C2.22735 3.48644 2.59557 3.01713 3.03765 2.61135C3.47923 2.20171 3.98751 1.85872 4.54395 1.59488C5.1033 1.33331 5.70195 1.15103 6.31984 1.05414C6.98601 0.953303 7.65941 0.898785 8.33439 0.891045L9.3036 0.878906H119.691L120.672 0.891532C121.34 0.898887 122.008 0.952919 122.668 1.05317C123.292 1.15127 123.897 1.33483 124.463 1.5978C125.577 2.1295 126.484 2.9707 127.057 4.00351C127.336 4.51996 127.53 5.07262 127.632 5.64274C127.743 6.26307 127.805 6.89011 127.818 7.51886C127.821 7.80039 127.821 8.1028 127.821 8.40376C127.83 8.77656 127.83 9.13139 127.83 9.48914V30.2948C127.83 30.656 127.83 31.0084 127.821 31.3637C127.821 31.687 127.821 31.9831 127.817 32.2879C127.805 32.9055 127.743 33.5213 127.634 34.1305C127.533 34.7082 127.338 35.2681 127.054 35.7907C126.77 36.3001 126.402 36.765 125.963 37.1683C125.524 37.5796 125.016 37.9229 124.459 38.1848C123.895 38.4492 123.291 38.6335 122.668 38.7313C122.004 38.8317 121.333 38.8859 120.66 38.8935C120.345 38.9003 120.016 38.9041 119.696 38.9041L118.532 38.9061L9.30308 38.9041Z" fill="black"/>
<path fill-rule="evenodd" clip-rule="evenodd" d="M9.52632 7.50113C9.23756 7.80676 9.06787 8.2801 9.06787 8.89433V30.8224C9.06787 31.4366 9.23756 31.9099 9.52632 32.2156L9.59975 32.287L21.8835 20.0032V19.7135L9.59975 7.42969L9.52632 7.50113Z" fill="#00D7FE"/>
<mask id="mask0" mask-type="alpha" maskUnits="userSpaceOnUse" x="21" y="15" width="11" height="10">
<path d="M25.9761 24.0984L21.8828 20.0022V19.7124L25.9781 15.6172L30.9217 18.4254C32.307 19.2133 32.307 20.5013 30.9217 21.2882L26.0704 24.0449L25.9761 24.0984Z" fill="white"/>
</mask>
<g mask="url(#mask0)">
<path fill-rule="evenodd" clip-rule="evenodd" d="M25.9761 24.0984L21.8828 20.0022V19.7124L25.9781 15.6172L30.9217 18.4254C32.307 19.2133 32.307 20.5013 30.9217 21.2882L26.0704 24.0449L25.9761 24.0984Z" fill="url(#paint0_linear)"/>
</g>
<mask id="mask1" mask-type="alpha" maskUnits="userSpaceOnUse" x="9" y="19" width="18" height="14">
<path d="M26.0721 24.043L21.8846 19.8555L9.52734 32.2127C9.9848 32.6959 10.739 32.7555 11.5884 32.2732L26.0721 24.043Z" fill="white"/>
</mask>
<g mask="url(#mask1)">
<path fill-rule="evenodd" clip-rule="evenodd" d="M26.0721 24.043L21.8846 19.8555L9.52734 32.2127C9.9848 32.6959 10.739 32.7555 11.5884 32.2732L26.0721 24.043Z" fill="url(#paint1_linear)"/>
</g>
<mask id="mask2" mask-type="alpha" maskUnits="userSpaceOnUse" x="9" y="7" width="18" height="13">
<path d="M26.0721 15.6689L11.5884 7.43867C10.739 6.95641 9.9848 7.01594 9.52734 7.4992L21.8846 19.8564L26.0721 15.6689Z" fill="white"/>
</mask>
<g mask="url(#mask2)">
<path fill-rule="evenodd" clip-rule="evenodd" d="M26.0721 15.6689L11.5884 7.43867C10.739 6.95641 9.9848 7.01594 9.52734 7.4992L21.8846 19.8564L26.0721 15.6689Z" fill="url(#paint2_linear)"/>
</g>
<path fill-rule="evenodd" clip-rule="evenodd" d="M103.259 30.7245H105.11V18.3196H103.259V30.7245ZM119.936 22.788L117.814 28.1663H117.75L115.547 22.788H113.553L116.856 30.3047L114.973 34.4863H116.905L121.995 22.788H119.936ZM109.436 29.3154C108.829 29.3154 107.983 29.0127 107.983 28.2625C107.983 27.305 109.037 26.9378 109.946 26.9378C110.761 26.9378 111.143 27.1134 111.638 27.3526C111.494 28.5017 110.505 29.3154 109.436 29.3154ZM109.659 22.5171C108.318 22.5171 106.93 23.1075 106.356 24.4164L107.999 25.102C108.35 24.4164 109.004 24.1921 109.691 24.1921C110.648 24.1921 111.622 24.7666 111.638 25.7887V25.9157C111.302 25.7242 110.585 25.4374 109.707 25.4374C107.935 25.4374 106.131 26.4109 106.131 28.2298C106.131 29.8899 107.584 30.9596 109.212 30.9596C110.457 30.9596 111.143 30.401 111.574 29.746H111.638V30.7036H113.425V25.9485C113.425 23.7456 111.782 22.5171 109.659 22.5171ZM98.2158 24.2983H95.5822V20.0462H98.2158C99.6001 20.0462 100.386 21.1923 100.386 22.1718C100.386 23.1333 99.6001 24.2983 98.2158 24.2983ZM98.1682 18.3196H93.7316V30.7245H95.5822V26.0249H98.1682C100.22 26.0249 102.238 24.5384 102.238 22.1718C102.238 19.8051 100.22 18.3196 98.1682 18.3196ZM73.9747 29.3174C72.6956 29.3174 71.6249 28.2467 71.6249 26.7761C71.6249 25.2896 72.6956 24.202 73.9747 24.202C75.2379 24.202 76.2282 25.2896 76.2282 26.7761C76.2282 28.2467 75.2379 29.3174 73.9747 29.3174ZM76.1002 23.4826H76.0367C75.6209 22.9874 74.8221 22.5399 73.8149 22.5399C71.7043 22.5399 69.7703 24.3935 69.7703 26.7761C69.7703 29.1417 71.7043 30.9805 73.8149 30.9805C74.8221 30.9805 75.6209 30.5329 76.0367 30.0209H76.1002V30.6282C76.1002 32.2437 75.2379 33.107 73.8467 33.107C72.7115 33.107 72.008 32.2913 71.7202 31.6036L70.1057 32.2754C70.5691 33.3948 71.8006 34.7691 73.8467 34.7691C76.0208 34.7691 77.8596 33.49 77.8596 30.3732V22.7949H76.1002V23.4826ZM79.1387 30.7245H80.9933V18.3186H79.1387V30.7245ZM83.7261 26.6322C83.6785 25.0018 84.9893 24.1703 85.932 24.1703C86.6683 24.1703 87.2915 24.5374 87.4989 25.0653L83.7261 26.6322ZM89.4815 25.2251C89.1302 24.2824 88.0585 22.5399 85.8685 22.5399C83.6944 22.5399 81.8884 24.2496 81.8884 26.7602C81.8884 29.1258 83.6785 30.9805 86.0759 30.9805C88.0109 30.9805 89.1302 29.7976 89.5936 29.11L88.1548 28.1504C87.6755 28.854 87.0196 29.3174 86.0759 29.3174C85.1332 29.3174 84.4614 28.8857 84.0298 28.0393L89.673 25.7054L89.4815 25.2251ZM44.522 23.8349V25.625H48.8058C48.6778 26.6322 48.3424 27.3675 47.8314 27.8795C47.2072 28.5027 46.2318 29.1894 44.522 29.1894C41.8845 29.1894 39.8215 27.0638 39.8215 24.4263C39.8215 21.7877 41.8845 19.6622 44.522 19.6622C45.945 19.6622 46.9839 20.2219 47.751 20.9413L49.0142 19.6781C47.9425 18.655 46.5205 17.8711 44.522 17.8711C40.909 17.8711 37.8716 20.8133 37.8716 24.4263C37.8716 28.0393 40.909 30.9805 44.522 30.9805C46.4719 30.9805 47.9425 30.3414 49.0936 29.1417C50.2764 27.9589 50.6446 26.2968 50.6446 24.9532C50.6446 24.5374 50.6128 24.1544 50.5483 23.8349H44.522ZM55.5158 29.3174C54.2367 29.3174 53.1333 28.2625 53.1333 26.7602C53.1333 25.241 54.2367 24.202 55.5158 24.202C56.7939 24.202 57.8973 25.241 57.8973 26.7602C57.8973 28.2625 56.7939 29.3174 55.5158 29.3174ZM55.5158 22.5399C53.1809 22.5399 51.2786 24.3141 51.2786 26.7602C51.2786 29.1894 53.1809 30.9805 55.5158 30.9805C57.8497 30.9805 59.752 29.1894 59.752 26.7602C59.752 24.3141 57.8497 22.5399 55.5158 22.5399ZM64.7572 29.3174C63.4781 29.3174 62.3746 28.2625 62.3746 26.7602C62.3746 25.241 63.4781 24.202 64.7572 24.202C66.0362 24.202 67.1387 25.241 67.1387 26.7602C67.1387 28.2625 66.0362 29.3174 64.7572 29.3174ZM64.7572 22.5399C62.4233 22.5399 60.521 24.3141 60.521 26.7602C60.521 29.1894 62.4233 30.9805 64.7572 30.9805C67.0911 30.9805 68.9933 29.1894 68.9933 26.7602C68.9933 24.3141 67.0911 22.5399 64.7572 22.5399Z" fill="#FFFFFE"/>
<path d="M43.2963 12.1398C43.0812 12.4479 42.7803 12.679 42.3937 12.8331C42.0099 12.9843 41.5622 13.0599 41.0506 13.0599C40.5331 13.0599 40.0737 12.9392 39.6726 12.6979C39.2714 12.4537 38.9603 12.1078 38.7394 11.6601C38.5213 11.2124 38.4094 10.6934 38.4036 10.1033V9.54949C38.4036 8.59303 38.626 7.85171 39.0708 7.32551C39.5185 6.79932 40.1464 6.53622 40.9546 6.53622C41.6174 6.53622 42.1509 6.70629 42.555 7.04643C42.9591 7.38366 43.2062 7.86334 43.2963 8.48547H42.4591C42.3021 7.6453 41.8021 7.22522 40.959 7.22522C40.3979 7.22522 39.972 7.4229 39.6813 7.81828C39.3935 8.21074 39.2481 8.78054 39.2452 9.52768V10.0466C39.2452 10.7589 39.408 11.3258 39.7336 11.7473C40.0592 12.1659 40.4996 12.3752 41.0549 12.3752C41.3689 12.3752 41.6436 12.3404 41.8791 12.2706C42.1146 12.2008 42.3093 12.0831 42.4634 11.9174V10.4914H40.9939V9.81113H43.2963V12.1398ZM48.0171 10.0379H45.2655V12.288H48.4619V12.9727H44.4282V6.62344H48.4183V7.31243H45.2655V9.35325H48.0171V10.0379ZM53.7103 7.31243H51.6694V12.9727H50.8365V7.31243H48.8001V6.62344H53.7103V7.31243ZM57.0555 12.9727H56.2182V6.62344H57.0555V12.9727ZM62.5786 7.31243H60.5378V12.9727H59.7049V7.31243H57.6684V6.62344H62.5786V7.31243ZM69.9095 10.003C69.9095 10.6251 69.8048 11.1688 69.5955 11.6339C69.3862 12.0962 69.0897 12.4494 68.7059 12.6936C68.3222 12.9378 67.8745 13.0599 67.3628 13.0599C66.8628 13.0599 66.4195 12.9378 66.0328 12.6936C65.6462 12.4465 65.3453 12.0962 65.1301 11.6426C64.9179 11.1862 64.8089 10.6586 64.8031 10.0597V9.60181C64.8031 8.99131 64.9092 8.45204 65.1214 7.98398C65.3336 7.51593 65.6331 7.15835 66.0197 6.91125C66.4093 6.66123 66.8541 6.53622 67.3541 6.53622C67.8629 6.53622 68.3106 6.65978 68.6972 6.90688C69.0868 7.15109 69.3862 7.50721 69.5955 7.97526C69.8048 8.44041 69.9095 8.98259 69.9095 9.60181V10.003ZM69.0766 9.59309C69.0766 8.84014 68.9254 8.26307 68.6231 7.86188C68.3207 7.45779 67.8977 7.25574 67.3541 7.25574C66.825 7.25574 66.4078 7.45779 66.1026 7.86188C65.8002 8.26307 65.6447 8.82124 65.636 9.5364V10.003C65.636 10.7327 65.7886 11.3069 66.0939 11.7255C66.402 12.1412 66.825 12.3491 67.3628 12.3491C67.9036 12.3491 68.3222 12.1528 68.6187 11.7604C68.9152 11.365 69.0679 10.7996 69.0766 10.0641V9.59309ZM75.7771 12.9727H74.9355L71.7391 8.07992V12.9727H70.8975V6.62344H71.7391L74.9442 11.538V6.62344H75.7771V12.9727Z" fill="white"/>
<defs>
<linearGradient id="paint0_linear" x1="30.0205" y1="19.8576" x2="21.8828" y2="19.8576" gradientUnits="userSpaceOnUse">
<stop stop-color="#FFBC00"/>
<stop offset="1" stop-color="#FFDA03"/>
</linearGradient>
<linearGradient id="paint1_linear" x1="23.7963" y1="23.7957" x2="13.1752" y2="32.5504" gradientUnits="userSpaceOnUse">
<stop stop-color="#E22652"/>
<stop offset="1" stop-color="#FF3A44"/>
</linearGradient>
<linearGradient id="paint2_linear" x1="11.3985" y1="8.98683" x2="18.4798" y2="15.2135" gradientUnits="userSpaceOnUse">
<stop stop-color="#0ED574"/>
<stop offset="1" stop-color="#07F076"/>
</linearGradient>
</defs>
</svg>
